<svg width="15" height="15" viewBox="0 0 15 15" fill="none" xmlns="http://www.w3.org/2000/svg">
<g clip-path="url(#clip0_307_55)">
<path d="M0.257349 1.49902L13.5003 14.7426C13.8434 15.0858 14.3988 15.0858 14.7419 14.7426C15.085 14.3995 15.085 13.8441 14.7419 13.501L1.49895 0.257362C1.15581 -0.0857874 0.600482 -0.0857874 0.257349 0.257362C-0.0857831 0.600512 -0.0857831 1.15587 0.257349 1.49902ZM13.5011 0.257362L0.258102 13.501C-0.0850306 13.8441 -0.0850306 14.3995 0.258102 14.7426C0.601234 15.0858 1.15657 15.0858 1.4997 14.7426L14.7426 1.49902C15.0858 1.15587 15.0858 0.600512 14.7426 0.257362C14.3995 -0.0857874 13.8442 -0.0857874 13.5011 0.257362Z" fill="white"/>
</g>
<defs>
<clipPath id="clip0_307_55">
<rect width="15" height="15" fill="white"/>
</clipPath>
</defs>
</svg>
